<svg fill="#000000" xmlns="http://www.w3.org/2000/svg"  viewBox="0 0 24 24" width="240px" height="240px"><path d="M 5 2 C 3.347656 2 2 3.347656 2 5 L 2 19 C 2 20.652344 3.347656 22 5 22 L 19 22 C 20.652344 22 22 20.652344 22 19 L 22 5 C 22 3.347656 20.652344 2 19 2 Z M 5 4 L 19 4 C 19.550781 4 20 4.449219 20 5 L 20 19 C 20 19.550781 19.550781 20 19 20 L 5 20 C 4.449219 20 4 19.550781 4 19 L 4 5 C 4 4.449219 4.449219 4 5 4 Z M 16 6 C 14.894531 6 14 6.894531 14 8 C 14 9.105469 14.894531 10 16 10 C 17.105469 10 18 9.105469 18 8 C 18 6.894531 17.105469 6 16 6 Z M 7.5 7 C 6.671875 7 6 7.671875 6 8.5 C 6 9.328125 6.671875 10 7.5 10 C 8.328125 10 9 9.328125 9 8.5 C 9 7.671875 8.328125 7 7.5 7 Z M 11.5 7 C 10.671875 7 10 7.671875 10 8.5 C 10 9.328125 10.671875 10 11.5 10 C 12.328125 10 13 9.328125 13 8.5 C 13 7.671875 12.328125 7 11.5 7 Z M 7.5 11 C 4.976563 11.007813 5 13.5 5 13.5 L 5 16 L 9.03125 16 L 9.03125 17 L 13.03125 17 L 13.03125 18 L 19 18 L 19 14.5 C 19 14.5 18.984375 10.992188 16 11 C 14.722656 11.003906 14.042969 11.652344 13.625 12.375 C 13.296875 11.667969 12.675781 10.996094 11.5 11 C 10.488281 11.003906 9.917969 11.480469 9.5625 12.0625 C 9.222656 11.503906 8.625 10.996094 7.5 11 Z"/></svg>